<?xml version="1.0" encoding="utf-8"?>
<!-- Generator: Adobe Illustrator 25.4.1, SVG Export Plug-In . SVG Version: 6.00 Build 0)  -->
<svg version="1.1" id="livetype" xmlns="http://www.w3.org/2000/svg" xmlns:xlink="http://www.w3.org/1999/xlink" x="0px" y="0px"
	 viewBox="0 0 119.7 40" style="enable-background:new 0 0 119.7 40;" xml:space="preserve">
<style type="text/css">
	.st0{fill:#A6A6A6;}
	.st1{fill:#FFFFFF;}
</style>
<g>
	<g>
		<g>
			<path class="st0" d="M110.1,0H9.5C9.2,0,8.8,0,8.4,0C8.1,0,7.8,0,7.5,0c-0.7,0-1.3,0.1-2,0.2C4.9,0.3,4.2,0.5,3.6,0.8
				C3,1.1,2.5,1.5,2,2C1.5,2.5,1.1,3,0.8,3.6C0.5,4.2,0.3,4.9,0.2,5.5C0.1,6.2,0,6.9,0,7.5c0,0.3,0,0.6,0,0.9v23.1
				c0,0.3,0,0.6,0,0.9c0,0.7,0.1,1.3,0.2,2c0.1,0.7,0.3,1.3,0.6,1.9C1.1,37,1.5,37.5,2,38c0.5,0.5,1,0.9,1.6,1.2
				c0.6,0.3,1.2,0.5,1.9,0.6c0.7,0.1,1.3,0.2,2,0.2c0.3,0,0.6,0,0.9,0c0.4,0,0.7,0,1.1,0h100.6c0.4,0,0.7,0,1.1,0c0.3,0,0.6,0,0.9,0
				c0.7,0,1.3-0.1,2-0.2c0.7-0.1,1.3-0.3,1.9-0.6c0.6-0.3,1.1-0.7,1.6-1.2c0.5-0.5,0.9-1,1.2-1.6c0.3-0.6,0.5-1.2,0.6-1.9
				c0.1-0.7,0.2-1.3,0.2-2c0-0.3,0-0.6,0-0.9c0-0.4,0-0.7,0-1.1V9.5c0-0.4,0-0.7,0-1.1c0-0.3,0-0.6,0-0.9c0-0.7-0.1-1.3-0.2-2
				c-0.1-0.7-0.3-1.3-0.6-1.9c-0.6-1.2-1.6-2.2-2.8-2.8c-0.6-0.3-1.2-0.5-1.9-0.6c-0.7-0.1-1.3-0.2-2-0.2c-0.3,0-0.6,0-0.9,0
				C110.9,0,110.5,0,110.1,0L110.1,0z"/>
			<path d="M8.4,39.1c-0.3,0-0.6,0-0.9,0c-0.6,0-1.3-0.1-1.9-0.2c-0.6-0.1-1.1-0.3-1.7-0.5c-0.5-0.3-1-0.6-1.4-1
				c-0.4-0.4-0.8-0.9-1-1.4c-0.3-0.5-0.4-1.1-0.5-1.7c-0.1-0.6-0.2-1.2-0.2-1.9c0-0.2,0-0.9,0-0.9V8.4c0,0,0-0.7,0-0.9
				c0-0.6,0.1-1.3,0.2-1.9C1.1,5.1,1.3,4.5,1.6,4c0.3-0.5,0.6-1,1-1.4C3,2.2,3.5,1.9,4,1.6c0.5-0.3,1.1-0.4,1.7-0.5
				c0.6-0.1,1.2-0.2,1.9-0.2l0.9,0h102.8l0.9,0c0.6,0,1.2,0.1,1.9,0.2c0.6,0.1,1.1,0.3,1.7,0.5c1,0.5,1.9,1.4,2.4,2.4
				c0.3,0.5,0.4,1.1,0.5,1.6c0.1,0.6,0.2,1.3,0.2,1.9c0,0.3,0,0.6,0,0.9c0,0.4,0,0.7,0,1.1v20.9c0,0.4,0,0.7,0,1.1
				c0,0.3,0,0.6,0,0.9c0,0.6-0.1,1.2-0.2,1.9c-0.1,0.6-0.3,1.1-0.5,1.7c-0.3,0.5-0.6,1-1,1.4c-0.4,0.4-0.9,0.8-1.4,1
				c-0.5,0.3-1.1,0.5-1.7,0.5c-0.6,0.1-1.2,0.2-1.9,0.2c-0.3,0-0.6,0-0.9,0l-1.1,0L8.4,39.1z"/>
		</g>
		<path class="st1" d="M7.4,30h22.3c0.3,0,0.5-0.2,0.5-0.5V29c0,0,0,0,0,0c0-0.1,0-0.2-0.1-0.2L27.8,23V12.4c0-0.3-0.2-0.5-0.5-0.5
			H9.7c-0.3,0-0.5,0.2-0.5,0.5V23l-2.3,5.8c0,0,0,0.1,0,0.1c0,0,0,0,0,0c0,0,0,0.1,0,0.1c0,0,0,0,0,0v0.5C6.8,29.8,7.1,30,7.4,30z
			 M16.2,28.3l0.5-1.5h3.6l0.5,1.5H16.2z M10.7,13.2h15.6v9.1H10.7V13.2z"/>
	</g>
	<g>
		<path class="st1" d="M40.9,13.6h-2.3l-0.4,1.1h-1l2-5.6h1.1l2,5.6h-1L40.9,13.6z M39.7,10.2l-0.9,2.6h1.8L39.7,10.2z"/>
		<path class="st1" d="M43.6,10.3l1.2,3.6l1.2-3.6h1l-1.7,4.4h-1.1l-1.7-4.4H43.6z"/>
		<path class="st1" d="M49.5,10.2c0.7,0,1.3,0.4,1.5,0.7v-0.6H52v4.4H51V14c-0.3,0.4-0.8,0.7-1.5,0.7c-1.1,0-2.1-0.9-2.1-2.3
			S48.4,10.2,49.5,10.2z M49.7,11c-0.7,0-1.3,0.5-1.3,1.5S49,14,49.7,14c0.7,0,1.3-0.5,1.3-1.5C51,11.5,50.4,11,49.7,11z"/>
		<path class="st1" d="M53,9.1c0-0.3,0.3-0.6,0.6-0.6c0.3,0,0.6,0.3,0.6,0.6c0,0.3-0.3,0.6-0.6,0.6C53.3,9.7,53,9.5,53,9.1z
			 M53.2,10.3h0.9v4.4h-0.9V10.3z"/>
		<path class="st1" d="M55.3,8.8h0.9v5.9h-0.9V8.8z"/>
		<path class="st1" d="M59.2,10.2c0.7,0,1.3,0.4,1.5,0.7v-0.6h0.9v4.4h-0.9V14c-0.3,0.4-0.8,0.7-1.5,0.7c-1.1,0-2.1-0.9-2.1-2.3
			S58,10.2,59.2,10.2z M59.4,11c-0.7,0-1.3,0.5-1.3,1.5s0.7,1.5,1.3,1.5c0.7,0,1.3-0.5,1.3-1.5C60.7,11.5,60,11,59.4,11z"/>
		<path class="st1" d="M65.3,10.2c1.2,0,2.1,0.9,2.1,2.3s-0.9,2.3-2.1,2.3c-0.7,0-1.2-0.3-1.5-0.7v0.6h-0.9V8.8h0.9v2.2
			C64,10.5,64.6,10.2,65.3,10.2z M65.1,11c-0.7,0-1.3,0.5-1.3,1.5c0,1,0.7,1.5,1.3,1.5c0.7,0,1.3-0.6,1.3-1.5S65.7,11,65.1,11z"/>
		<path class="st1" d="M68.2,8.8h0.9v5.9h-0.9V8.8z"/>
		<path class="st1" d="M72.2,14.8c-1.3,0-2.2-0.9-2.2-2.3c0-1.4,0.9-2.3,2.2-2.3c1.3,0,2.1,0.9,2.1,2.2c0,0.2,0,0.3,0,0.4H71
			c0.1,0.7,0.6,1.2,1.3,1.2c0.6,0,0.9-0.3,1-0.6h1C74,14.2,73.3,14.8,72.2,14.8z M71,12.1h2.4c0-0.7-0.6-1.1-1.2-1.1
			C71.6,11,71.1,11.4,71,12.1z"/>
		<path class="st1" d="M79.3,14.8c-1.3,0-2.2-0.9-2.2-2.3c0-1.4,1-2.3,2.2-2.3c1.3,0,2.2,0.9,2.2,2.3C81.6,13.9,80.5,14.8,79.3,14.8
			z M79.3,14c0.7,0,1.4-0.5,1.4-1.5c0-1-0.6-1.5-1.3-1.5c-0.7,0-1.3,0.5-1.3,1.5C78,13.5,78.6,14,79.3,14z"/>
		<path class="st1" d="M85.6,12.2c0-0.8-0.4-1.2-1.1-1.2c-0.7,0-1.1,0.4-1.1,1.2v2.5h-0.9v-4.4h0.9v0.5c0.3-0.4,0.8-0.6,1.3-0.6
			c1,0,1.8,0.6,1.8,1.9v2.6h-0.9V12.2z"/>
		<path class="st1" d="M89.9,11h-0.5v-0.7h0.5V9.2h0.9v1.1h1.1V11h-1.1v2.4c0,0.3,0.1,0.5,0.5,0.5h0.6v0.8h-0.7
			c-0.8,0-1.3-0.3-1.3-1.2V11z"/>
		<path class="st1" d="M92.7,8.8h0.9v2c0.3-0.4,0.8-0.6,1.4-0.6c1,0,1.8,0.6,1.8,1.9v2.6h-0.9v-2.5c0-0.8-0.4-1.2-1.1-1.2
			c-0.7,0-1.1,0.4-1.1,1.2v2.5h-0.9V8.8z"/>
		<path class="st1" d="M99.8,14.8c-1.3,0-2.2-0.9-2.2-2.3c0-1.4,0.9-2.3,2.2-2.3c1.3,0,2.1,0.9,2.1,2.2c0,0.2,0,0.3,0,0.4h-3.4
			c0.1,0.7,0.6,1.2,1.3,1.2c0.6,0,0.9-0.3,1-0.6h1C101.6,14.2,100.9,14.8,99.8,14.8z M98.6,12.1h2.4c0-0.7-0.6-1.1-1.2-1.1
			C99.1,11,98.7,11.4,98.6,12.1z"/>
	</g>
</g>
<g>
	<path class="st1" d="M41.6,31.2h-4.9V19.1h4.6c2.6,0,3.9,1.4,3.9,3.1c0,1.5-0.9,2.4-2.1,2.8c1.3,0.2,2.3,1.5,2.3,3
		C45.6,29.8,44.1,31.2,41.6,31.2z M41.2,20.7h-2.5v3.5h2.5c1.3,0,2.1-0.6,2.1-1.7C43.3,21.4,42.5,20.7,41.2,20.7z M41.4,25.8h-2.6
		v3.8h2.7c1.3,0,2.2-0.7,2.2-1.9C43.6,26.6,42.7,25.8,41.4,25.8z"/>
	<path class="st1" d="M49.3,31.2h-2v-9.6h2V23c0.6-1,1.5-1.6,2.9-1.6v2.1h-0.5c-1.5,0-2.4,0.6-2.4,2.7V31.2z"/>
	<path class="st1" d="M57.8,31.4c-2.7,0-4.8-2-4.8-5s2.2-5,4.9-5c2.7,0,4.9,1.9,4.9,5S60.5,31.4,57.8,31.4z M57.8,29.7
		c1.5,0,3-1.1,3-3.2c0-2.2-1.4-3.2-2.9-3.2c-1.5,0-2.8,1-2.8,3.2C55,28.6,56.3,29.7,57.8,29.7z"/>
	<path class="st1" d="M63.2,21.6h2l2,7.7l2-7.7h2.1l2,7.7l2-7.7h2l-3,9.6h-2.1l-1.9-7.1l-1.9,7.1h-2.1L63.2,21.6z"/>
	<path class="st1" d="M81.8,31.4c-2.3,0-3.9-1.4-4-3.1h2.1c0.1,0.8,0.8,1.4,1.9,1.4c1.2,0,1.8-0.5,1.8-1.2c0-1.9-5.6-0.8-5.6-4.3
		c0-1.5,1.4-2.8,3.7-2.8c2.2,0,3.6,1.2,3.7,3.1h-2c-0.1-0.8-0.7-1.4-1.8-1.4c-1.1,0-1.6,0.4-1.6,1.1c0,1.9,5.4,0.9,5.5,4.3
		C85.4,30.2,84,31.4,81.8,31.4z"/>
	<path class="st1" d="M91.3,31.4c-2.8,0-4.8-2-4.8-5s2-5,4.8-5c2.7,0,4.7,1.9,4.7,4.7c0,0.3,0,0.6-0.1,1h-7.4
		c0.1,1.6,1.3,2.6,2.7,2.6c1.2,0,1.9-0.6,2.3-1.3h2.1C95.2,30.1,93.7,31.4,91.3,31.4z M88.6,25.6h5.3c0-1.5-1.2-2.4-2.7-2.4
		C89.9,23.1,88.8,24,88.6,25.6z"/>
	<path class="st1" d="M99.5,31.2h-2v-9.6h2V23c0.6-1,1.5-1.6,2.9-1.6v2.1h-0.5c-1.5,0-2.4,0.6-2.4,2.7V31.2z"/>
</g>
</svg>
