<svg xmlns="http://www.w3.org/2000/svg" width="32" height="32" viewBox="0 0 32 32"><defs><clipPath id="a"><path data-name="Rectangle 24929" fill="#fff" d="M0 0h24v24H0V0z"/></clipPath></defs><g data-name="Group 26573"><g data-name="Group 26555"><g data-name="Group 26597" transform="translate(5 5)" clip-path="url(#a)"><path data-name="Path 26482" d="M10.494 1.239 8.756 2.977a.751.751 0 0 1-.531.22H5.487a2.29 2.29 0 0 0-2.29 2.29v2.738a.751.751 0 0 1-.22.531l-1.738 1.738a2.29 2.29 0 0 0 0 3.239l1.738 1.738a.751.751 0 0 1 .22.531v2.738a2.29 2.29 0 0 0 2.29 2.29h2.738a.751.751 0 0 1 .531.22l1.738 1.738a2.29 2.29 0 0 0 3.239 0l1.738-1.738a.751.751 0 0 1 .531-.22h2.738a2.29 2.29 0 0 0 2.29-2.29v-2.738a.751.751 0 0 1 .22-.531l1.738-1.738a2.29 2.29 0 0 0 0-3.239L21.25 8.756a.751.751 0 0 1-.22-.531V5.487a2.29 2.29 0 0 0-2.29-2.29h-2.738a.751.751 0 0 1-.531-.22l-1.737-1.738a2.29 2.29 0 0 0-3.24 0ZM7.721 15.418l7.697-7.697 1.088 1.087-7.698 7.698Zm.544-7.153v1.539h1.539V8.265Zm6.16 7.697h1.539v-1.539h-1.541Z" fill="#136afb" fill-rule="evenodd"/></g></g></g></svg>